# xmcd
#
# Track frame offsets: 
#        150
#        16576
#        17462
#        29848
#        31855
#        52787
#        57421
#        74578
#        80180
#        98577
#        101808
#        123171
#        127519
#        145064
#        146044
#        161032
#        161930
#
# Disc length: 2436 seconds
#
# Revision: 0
# Processed by: cddbd v1.5.2PL0 Copyright (c) Steve Scherf et al.
# Submitted via: ExactAudioCopy v1.3
#
DISCID=e0098211
DTITLE=Mitch Woods - A Tip Of The Hat To Fats
DYEAR=2019
DGENRE=Blues
TTITLE0=Solid Gold Cadillac
TTITLE1=Spoken Welcome
TTITLE2=Down Boy Down
TTITLE3=Spoken Gonna Have A Ball
TTITLE4=Mojo Mambo
TTITLE5=Spoken Thank You
TTITLE6=Crawfishin'
TTITLE7=Spoken Fats Dedication
TTITLE8=Blue Monday
TTITLE9=Spoken Band Introductions
TTITLE10=Jambalaya
TTITLE11=Spoken More Band Introductions
TTITLE12=Walking To New Orleans
TTITLE13=Spoken Intro To Rocket 88
TTITLE14=Rocket 88
TTITLE15=Spoken Intro To The House Of Blue Lights
TTITLE16=The House Of Blue Lights
EXTD=
EXTT0=
EXTT1=
EXTT2=
EXTT3=
EXTT4=
EXTT5=
EXTT6=
EXTT7=
EXTT8=
EXTT9=
EXTT10=
EXTT11=
EXTT12=
EXTT13=
EXTT14=
EXTT15=
EXTT16=
PLAYORDER=
